<svg width="64" height="64" viewBox="0 0 64 64" fill="none" xmlns="http://www.w3.org/2000/svg" role="img" aria-labelledby="title desc">
  <title id="title">Rosa</title>
  <desc id="desc">Ícone vetorial de uma rosa vermelha com caule e folhas verdes.</desc>
  <path
    d="M31.8 36.2C30.5 42.4 30.4 48.8 31.5 56"
    stroke="#4F8A65"
    stroke-width="3"
    stroke-linecap="round"
  />
  <path
    d="M31.4 44.1C23.5 41.4 18.6 36.8 17.1 30.6C24.4 30.4 30.4 34.8 31.4 44.1Z"
    fill="#2F6B4F"
  />
  <path
    d="M32.3 45.6C38.5 39.5 45.4 37.2 52 39.3C48.8 46.1 41.9 49.4 32.3 45.6Z"
    fill="#477F61"
  />
  <path
    d="M31.8 31.9C24.5 30.1 20.7 22.3 25.3 16.4C28.9 11.7 36.9 10.9 41.1 16C45.1 15.8 48.8 18.3 49.7 22.3C51.1 28.9 45 34.5 37.8 32.7C36.2 35.6 33.1 35.6 31.8 31.9Z"
    fill="#B23A3A"
  />
  <path
    d="M32 29.8C28.2 25.8 30.2 19.9 35.3 19.4C39.7 19 43.1 22.4 42.2 26.5C39.7 24.9 36.7 24.6 34.1 26.2C37.6 27.5 39.5 30 39.1 33.5C36.2 34.9 33.6 33.7 32 29.8Z"
    fill="#D96C6C"
  />
  <path
    d="M25.6 24C28.3 27.2 31.7 28.4 35.9 27.4C33.1 32.2 27.8 32.8 24.8 29.6C22.7 27.5 23.1 25.2 25.6 24Z"
    fill="#8F2D2D"
  />
  <path
    d="M40.7 16.1C38.8 19 38.8 22.1 40.7 25.3C44.2 22.9 44.4 18.8 40.7 16.1Z"
    fill="#E78585"
  />
</svg>
